<svg id="visual" viewBox="0 0 900 600" width="900" height="600" xmlns="http://www.w3.org/2000/svg" xmlns:xlink="http://www.w3.org/1999/xlink" version="1.1"><path d="M0 382L21.5 400.2C43 418.3 86 454.7 128.8 457C171.7 459.3 214.3 427.7 257.2 430.5C300 433.3 343 470.7 385.8 477.5C428.7 484.3 471.3 460.7 514.2 461.7C557 462.7 600 488.3 642.8 481.8C685.7 475.3 728.3 436.7 771.2 433.3C814 430 857 462 878.5 478L900 494L900 601L878.5 601C857 601 814 601 771.2 601C728.3 601 685.7 601 642.8 601C600 601 557 601 514.2 601C471.3 601 428.7 601 385.8 601C343 601 300 601 257.2 601C214.3 601 171.7 601 128.8 601C86 601 43 601 21.5 601L0 601Z" fill="#B0D9B1" stroke-linecap="round" stroke-linejoin="miter"></path></svg>