<svg id="visual" viewBox="0 0 900 600" width="900" height="600" xmlns="http://www.w3.org/2000/svg" xmlns:xlink="http://www.w3.org/1999/xlink" version="1.1"><path d="M326 0L298.8 14.3C271.7 28.7 217.3 57.3 214 85.8C210.7 114.3 258.3 142.7 254.2 171.2C250 199.7 194 228.3 183.7 257C173.3 285.7 208.7 314.3 207 343C205.3 371.7 166.7 400.3 176.5 428.8C186.3 457.3 244.7 485.7 249.8 514.2C255 542.7 207 571.3 183 585.7L159 600L0 600L0 585.7C0 571.3 0 542.7 0 514.2C0 485.7 0 457.3 0 428.8C0 400.3 0 371.7 0 343C0 314.3 0 285.7 0 257C0 228.3 0 199.7 0 171.2C0 142.7 0 114.3 0 85.8C0 57.3 0 28.7 0 14.3L0 0Z" fill="#B0D9B1" stroke-linecap="round" stroke-linejoin="miter"></path></svg>